<svg id="レイヤー_1" data-name="レイヤー 1" xmlns="http://www.w3.org/2000/svg" viewBox="0 0 586.22609 1065.6975"><defs><style>.cls-1{fill:#3f3f3f;}</style></defs><title>illustration</title><path class="cls-1" d="M144.62305,1024.96186a81.64531,81.64531,0,0,1-16.4027,2.34341c-6.76663.37053-14.77239-3.84009-20.39464-7.62187-12.37188-8.31676-23.57022-18.67808-22.64452-34.85239.19923-3.48172-1.244-6.26855-4.54348-7.61823-4.59451-1.89514-.15307-10.72942.30857-13.88313-2.94233,1.60115-2.51228,5.93568-5.12661,7.91708-.68273.5163-1.51368.81029-2.194,1.32781a8.37716,8.37716,0,0,0-.87711.77992c-1.34361,1.36791-2.30333,3.11849-3.89476,4.337-2.59732,1.985-5.47647,7.78952-8.10538,9.72962-5.77289,4.18024-23.456-1.55985-24.89925-8.57552-.7945-3.981.58312-9.88754-4.094-10.98211,1.45051-3.74047,3.62749-14.33991,2.4078-16.031-1.4821,4.196-4.67711,14.88051-10.8339,13.84183-8.95333-1.51-17.74144,37.76314-20.261,44.90151-1.62059,4.59693-3.263,9.33479-3.04923,14.20384.34744,7.90372,6.6257,13.04368,13.75678,15.18544,2.04093.6475,4.07942,1.3436,6.12034,1.99111,6.31957,2.13933,6.10333-3.602,9.73812-9.27526,3.62992-5.72187,8.60589-4.7415,14.92789-4.54348,8.15883.29885,7.71663,8.00454,12.90154,14.12124,2.28632,2.69693,5.09259,5.87858,15.48185,9.65186,16.40027,5.95512,34.01052,7.85026,51.45311,8.19527,10.09528.19924,22.30923-3.14885,30.49236-9.06752C171.51706,1039.01021,165.47691,1019.13187,144.62305,1024.96186Z"/><path class="cls-1" d="M584.38107,971.21514a17.08681,17.08681,0,0,0-3.09782-5.63562,9.301,9.301,0,0,0-.899-.86375,14.06972,14.06972,0,0,0-6.45077-2.65441c-9.07239-1.75665-18.77163,14.05564-26.69721,18.80564-11.22993,6.73019-18.74733,2.047-32.43366,4.24585a19.56479,19.56479,0,0,1-6.60627.13485,21.48465,21.48465,0,0,1-2.76982-.74834,68.65118,68.65118,0,0,1-16.02853-7.66075c-4.41471-2.86336-9.20845-2.90224-13.73249-5.4461-4.52891-2.55237-7.60973-7.75672-10.71971-11.85558-.95972-1.26585-.49322,4.94074,1.985,8.26574,3.1197,4.18875,5.06829,9.53888,4.06241,14.66548-1.63031,8.32891-14.64362,17.69164-23.04541,18.88583-9.3105,1.32538-12.559-4.6674-21.194-4.27622-2.13568.096-4.507.249-6.15678-1.11036-2.33977-1.92794-3.78543-5.46311-5.67571-7.86a63.26161,63.26161,0,0,0-7.72878-8.17948c-.294-.26.12877,2.22193.21381,2.42116.50537,1.17839,1.31688,2.31548,1.91458,3.45985,1.27072,2.43574,2.46126,4.914,3.506,7.45666,1.97047,4.80467,1.4408,8.10416-.14092,12.85052-1.1225,3.37238-.23567,7.04968.69975,10.47916,2.143,7.85634,4.52161,15.6495,7.22341,23.33212,3.18529,9.05416,7.45422,18.67808,15.97264,23.10251,6.86382,3.56675,15.11012,2.97149,22.71984,1.57685,5.491-1.00709,11.06472-2.45032,15.59362-5.71579,4.52647-3.26548-.328-15.6495,2.93018-18.82751,1.193-1.16381,12.79221-8.65327,14.45168-8.81,9.62878-.91113,13.15908,4.52647,22.75628,3.34565,3.89719-.47864,7.50039-2.25716,11.004-4.03082q22.5121-11.39637,44.35362-24.06223c5.16548-2.99578,9.10154-9.06631,12.18722-14.17712C586.85448,985.26106,587.2578,978.95728,584.38107,971.21514Z"/><path class="cls-1" d="M458.743,936.149c-2.70894-9.63974-4.18634-20.317-8.54528-29.25563-5.27225-10.8133-10.71216-21.49288-14.98121-32.76171-6.59414-17.40136-10.64924-35.636-15.54484-53.5888-15.22437-55.82895-39.497-108.65725-53.5815-164.83858-9.60467-38.26476-24.53239-74.53973-39.70822-110.66531-4.71713-11.229-9.08729-22.61074-12.704-34.24557-1.82448-5.86933-3.45926-11.79851-4.85656-17.78429-.609-2.60867-.91-5.28867-1.54326-7.87421-.669-2.73156-2.11206-5.36248-1.7783-8.257a15.46552,15.46552,0,0,1,1.10364-3.69476,56.37019,56.37019,0,0,1,2.30836-5.64367c.67343-1.3138,1.48541-2.55066,2.24531-3.81642,6.54734-10.90577,10.52569-24.128,13.3175-36.45866a228.16227,228.16227,0,0,0,5.1073-40.58558,4.14984,4.14984,0,0,1,1.42975-3.034c13.45078-7.72894,27.49125-12.12715,43.19206-7.73905,5.915,1.653,12.021,2.61309,18.00837,4.02358a5.79125,5.79125,0,0,1,2.9166,1.80793c3.60877,4.32225,8.55382,5.62744,13.93395,6.32176,8.62259,1.11271,20.63641,2.862,28.15241-2.17059,2.50533-1.67758,4.04745-4.80448,5.41563-8.03193,1.236-2.91452,1.89766-6.06922,3.078-9.01161a13.80619,13.80619,0,0,1,2.87659-4.673c2.65771-2.6154,3.6735-5.5152,3.00469-7.39672,1.12817-4.02111,3.122-7.21424,2.43747-9.65671-.89894-3.20622.63914-5.357,1.085-7.97058.39149-2.29666.38924-4.70907,1.10884-6.88955,1.0113-3.06464,1.26435-5.75156-1.24637-8.207a3.28612,3.28612,0,0,1-1.12592-2.04452A94.57342,94.57342,0,0,1,454.8,309.47651c.98254-5.41227,1.40414-11.81685.28721-17.2231-.72813-3.52574-2.52016-6.98018-5.537-8.94475-2.33588-1.521-5.17382-2.025-7.93535-2.40162a123.118,123.118,0,0,0-19.58421-1.09288c-2.66624.06417-7.47555.17945-9.94537,1.18637-4.78369,1.9503-9.55344,9.96167-10.67127,15.08375-.87062,3.98846-1.79517,7.97142-2.46533,11.99551-.36452,2.18817-.258,4.6662-1.42571,6.63307-1.37986,2.32448-4.27489,2.39831-6.16265,4.10437-6.16445,5.57121-12.29474,11.20765-18.17827,17.07534a16.98984,16.98984,0,0,1-11.09646,5.18792c-7.65669.70331-15.29854,1.569-22.94174,2.411-2.82086.31075-5.62778.74645-9.13678,1.21879,0-4.42973-.00988-8.50646.00135-12.58313.07641-27.46951-2.19858-54.61371-8.71362-81.51384-5.26551-21.73952-9.97818-43.54652-18.62864-64.26524-.54925-1.31525-1.38346-2.50853-1.99968-3.79952a5.71759,5.71759,0,0,0-2.81412-2.86726c.02607-.12866.06338-.26041.08495-.38784.91377-5.40114-5.12888-23.15759-2.49-28.58182.99377-1.94013,9.25454-1.77922,11.19579-2.47651,6.91506-2.28875,16.75256,5.54328,23.86943,4.05144,6.56718-1.34357,10.29911-5.57362,12.34014-11.34529,1.89046-5.27484.41306-7.87822,1.75652-13.30127,1.19334-5.07556.627-13.07159,1.37762-16.75374.02922-.13731,7.93805-4.43175,8.64506-4.90308a23.00519,23.00519,0,0,0,6.67909-6.82011,8.3563,8.3563,0,0,0,1.4383-3.64816,9.28086,9.28086,0,0,0-.57352-3.5218c-1.28773-4.12679-6.475-10.08673-9.89593-13.88434-.09214-.58555-1.66168-1.17839-1.71068-1.74933a38.18791,38.18791,0,0,1,.46655-5.54211c.18473-2.73456.52723-15.319-4.54322-15.45635a38.3459,38.3459,0,0,0-6.04983.41183c-1.68146-4.4317-5.08573-12.23457-8.04008-16.58975.19911-.09961.94523-.74712,1.79068-1.244,10.7189-6.29884,22.13628-12.89028,30.73011-22.04223,2.29408-2.44325,4.105-5.63279,3.84519-8.9743a2.048,2.048,0,0,0-.81713-1.71259,2.07575,2.07575,0,0,0-1.16637-.16063c-6.15951.46341-11.03848,6.23159-15.51023,9.919L333.92487,29.27579c-4.09914,3.38-7.57667-1.602-10.44653-4.39259a36.08568,36.08568,0,0,1-2.96873-2.669C306.64308,5.84066,285.80171-3.21112,265.30733,1.04809,248.7004,4.49826,228.5539,15.80226,218.26154,29.2845c-5.95005,7.792-13.4701,23.57391-12.33069,37.66478.85308,10.56659,2.442,20.05446,8.80776,28.53159,10.19483,13.57943,26.484,43.09014,18.10861,61.69535-.196.44255-.40857.87747-.62925,1.30913-2.39657-2.01968-5.05517-2.04463-7.96322.41165-2.42623,2.0498-4.90325,4.04145-7.3915,6.0168-8.43561,6.698-17.34811,12.87855-25.23,20.17335A209.51666,209.51666,0,0,0,155.81654,228.711c-5.73386,9.24792-10.12606,18.73612-11.25827,29.59476a19.69154,19.69154,0,0,0,.14293,3.62c.14428,1.74343.8486,3.60631.44992,5.20226-2.68512,10.74357-5.68936,21.40674-8.419,32.13958-6.5456,25.73815-13.60674,51.366-19.31812,77.28991-5.90511,26.80294-8.34347,54.1258-8.83609,81.59194a403.86461,403.86461,0,0,1-3.5881,47.86033c-2.206,16.04033-4.19758,32.13987-.48048,48.35453.68364,2.98311,1.67472,3.67855,3.93464,3.52911,2.58624,6.02916,7.97715,6.3485,13.0894,7.35846a47.16075,47.16075,0,0,0,1.67022,5.76038c.87242,2.06036,4.74728,4.39354,6.52807,2.12036a6.32765,6.32765,0,0,0,.99827-3.13347c.636-4.74289-.20226-9.47365.61532-14.18879.77353-4.46086,2.81861-9.23988,4.77739-13.37178,1.59471,1.57505,5.47946,7.2384,6.98158,8.44505,2.91795,2.344,7.25891,2.7422,9.79121.91916,3.02627-2.17863,2.73321-5.23843,1.95069-8.36274-.09978-.398-.15911-.80837-.28811-1.19615-2.20868-6.65313-2.39027-13.481-1.90754-20.39645a46.99223,46.99223,0,0,0,.11012-9.82688,57.0891,57.0891,0,0,0-2.944-11.14865c-3.487-9.6771-7.07013-19.31251-6.0422-29.87129.61622-6.33092.81848-12.78163,2.24329-18.93878,3.53282-15.27145,7.36363-30.48964,11.64077-45.56866a259.58464,259.58464,0,0,0,7.71781-39.19235c.82432-6.674,1.15288-13.76422,3.7607-19.77473,3.42045-7.88462,8.86979-14.88913,13.44627-22.27219q.71871.14916,1.437.29839c0,4.47338-.34249,8.978.06158,13.41458,1.44549,15.87211,2.48016,31.756.65038,47.63824-1.2404,10.76653-2.43539,21.56155-4.64991,32.18138a135.21193,135.21193,0,0,1-4.24563,15.82734c-1.66431,4.90887-4.80765,9.81963-5.59793,14.93936a11.43014,11.43014,0,0,0-.13564,1.31876,6.26128,6.26128,0,0,0,1.34631,4.36647c1.39067,1.58856,3.73958,2.11674,5.0325,3.78583a4.34428,4.34428,0,0,1,.79156,3.56322,9.19573,9.19573,0,0,1-2.20808,3.633c-7.0958,8.56249-11.58155,18.83676-16.07555,28.90951a40.20033,40.20033,0,0,0-3.13414,12.04146,105.17151,105.17151,0,0,0,10.015,58.2499c.07956.35856.156.70229.23553,1.061-.05079,5.22642.29889,10.60014-.34969,15.77677A384.48252,384.48252,0,0,1,149.186,653.11667c-7.56094,22.89-16.81818,45.232-25.07625,67.87289-7.61488,20.8489-17.46722,40.65323-28.165,60.059-17.31619,31.299-34.8315,62.54816-51.74947,94.04641-9.85727,18.35367-31.549,49.35268-13.21255,69.1496,2.13317,2.30577,5.24574,3.56562,8.11739,4.67109,8.83429,3.40269,17.85825,6.60133,27.26606,7.6668,3.60068.407,7.22789.498,10.8533.5879a12.25638,12.25638,0,0,0,9.34128-3.9252,160.663,160.663,0,0,0,15.32191-19.53567c4.376-6.56492,7.69983-13.80293,12.42329-20.10065,11.79358-16.8193,24.33283-33.1406,36.2262-49.909,14.87693-20.99834,29.15832-42.44514,44.23482-63.29415,22.74127-31.54792,42.3466-64.58784,52.89381-102.40561,1.79293-6.56875,3.931-13.03771,5.97208-19.90389.89623,1.19412,1.74213,2.18913,2.38847,3.23381,22.4572,36.30418,40.11859,72.83916,53.44755,113.52633,13.57483,41.43317,24.37194,83.83944,40.96674,124.23513,7.62432,18.55785,21.18432,33.66547,31.367,50.91728,10.2191,17.31395,24.18,6.87731,34.88768-3.31157a43.799,43.799,0,0,1,17.12922-10.00908c6.7955-2.115,14.12857-1.46864,20.70068-4.40254a7.72582,7.72582,0,0,0,2.46848-1.57437C460.23969,947.35578,459.89,940.23082,458.743,936.149Zm-9.35228-585.97525c-.14428.6633-.11821,1.11552-.42565,1.29857a1.14659,1.14659,0,0,1-.70656.07366.24906.24906,0,0,1-.27193-.29233q-.17529-2.72865-.26968-5.46165.7369.30558,1.47336.61122a1.563,1.563,0,0,1,.61532.3766C450.33007,347.39271,449.5426,349.47413,449.39068,350.17373Zm1.121-8.01367c-1.59831-2.43634-2.54219-7.32745,2.13452-7.982C451.84118,337.18911,451.17641,339.67456,450.51165,342.16006Zm1.74079-17.3576c.63105.2363.67285,1.682.09349,3.229s-1.56055,2.60961-2.19161,2.3733-.67285-1.682-.09348-3.229S451.62139,324.56615,452.25244,324.80246ZM403.936,302.87433a14.64579,14.64579,0,0,1,.70791-2.00266c.83781-1.8227,2.02755-2.54893,4.89156-2.98194a101.33083,101.33083,0,0,1,35.58391.6919,10.397,10.397,0,0,1,5.01786,2.07048c3.42809,3.10857.28226,14.64792-.0863,18.78955a2.41506,2.41506,0,0,1-.52273,1.40565c-3.229,3.26611-3.91127,7.373-4.25871,11.72459-.47554,5.9577-1.72236,11.88438-1.80326,17.83567a74.97991,74.97991,0,0,1-3.72429,23.42007c-1.28279,3.76059-3.16381,7.27-5.4471,9.30213-4.44973,3.96088-22.917,1.62517-33.16173-1.16367-2.76828-.75359-3.48428-2.96615-3.37011-5.86392.42879-10.86353,1.27469-21.71924,1.37672-32.58349.05348-5.70751,1.46122-10.29781,5.92533-13.95659a11.17889,11.17889,0,0,0,2.60107-3.76615c2.7449-5.60093,1.17761-9.22505-5.34912-11.8778C401.97228,313.778,403.66857,303.79484,403.936,302.87433ZM330.0952,368.54078c.06742-5.74487.26474-11.4898.22968-17.2336-.01169-1.96322.64094-2.67658,2.56466-2.88817,10.5962-1.16558,21.17577-2.4791,31.77063-3.65934a17.85682,17.85682,0,0,0,10.78273-5.32558c6.40357-6.21007,12.88939-12.34693,19.5941-18.22608a13.96436,13.96436,0,0,1,6.58784-2.70608c2.24824-.39986,3.60833,1.31239,2.851,3.493a23.10533,23.10533,0,0,1-3.30494,5.77055c-2.99705,4.12673-6.23367,8.08042-9.18352,12.23878a4.2942,4.2942,0,0,0-.6342,3.57641c.3326.71061,2.14576.7287,3.48742,1.10738-.51509,10.04858-1.04861,20.46325-1.6091,31.4-5.75543-1.27654-11.527-2.1416-17.03392-3.85683-15.85138-4.93706-30.31481-.80027-44.46,6.11855-.43643.21339-.87151.42868-1.65.81146C330.08756,375.40561,330.05475,371.97275,330.0952,368.54078Zm11.42613-308.465c1.01535-1.4724,5.18731-1.85872,6.89528-.47138,2.104,1.71168,1.16143,6.4289,1.36549,8.76866a16.63574,16.63574,0,0,1,.02427,5.14849,7.6071,7.6071,0,0,1-.47149,1.23429C342.07777,65.9968,340.45474,61.61247,341.52133,60.07574ZM339.99269,64.098c.06832.18226.1654.35351.236.53577-.0827.92568-.23327,1.90726-.31822,2.90586a80.51166,80.51166,0,0,1-4.21556,17.75359,7.71149,7.71149,0,0,1-6.19547,4.93223c-.08764.00489-.17034.00489-.2481.00489-2.81367,0-4.043-3.30921-4.456-4.41715a49.73732,49.73732,0,0,1-1.686-6.17624l-.11686-.51993c-.17484-.78235-.2962-1.59387-.41306-2.40049a24.3877,24.3877,0,0,0-.525-2.82328,11.888,11.888,0,0,1,2.03609-9.59237c2.16284-2.92654,10.11033-5.22866,13.29526-4.45355a4.18315,4.18315,0,0,1,1.7691.86253A24.57937,24.57937,0,0,0,339.99269,64.098Zm-37.04244,7.91344c1.37268-8.85856,2.38578-12.25159,9.34938-18.34884,1.92912-1.68865,15.78306-15.21218,18.808-13.27087.30878.19922,4.20342,8.31313,5.98916,11.79364a17.74413,17.74413,0,0,1,1.15917,3.93c-3.95576.66331-8.05715,1.55741-9.93773,1.99963a12.2879,12.2879,0,0,0-4.06723,2.04457,16.15774,16.15774,0,0,0-4.825,4.64795c-1.41177,2.33369-1.78618,3.54366-4.53647,4.71475a51.75,51.75,0,0,1-12.08484,3.22054C302.84553,72.49863,302.91385,72.25446,302.95025,72.01146Zm-62.47017,63.38s9.40377-6.52694,14.51332-12.65459c5.62688-6.75084,12.27451-25.88328,13.61572-29.3662-.21844.56734,2.47837,3.22055,2.91075,3.664a19.16435,19.16435,0,0,0,3.41371,2.78074,27.17633,27.17633,0,0,0,9.602,3.4477q.98433.18043,1.97316.30979a2.31823,2.31823,0,0,0,.89175-.00241c2.38083-.62931-2.7894-2.58152-3.31662-2.76861A17.4673,17.4673,0,0,1,278.8844,98.473c-3.8389-2.99941-5.57385-8.01424-5.3163-12.78124a16.64637,16.64637,0,0,1,3.171-9.036,4.16035,4.16035,0,0,1,2.5386-1.42616,8.43966,8.43966,0,0,1,8.81766,5.65745c.92545,2.47583,1.17086,5.16792,2.13811,7.62673,1.01535,2.57911,3.88745,6.11063,6.40672,4.13528,1.34615-1.052,2.00687-5.29788,2.50263-6.85405,1.07648-3.37606,2.29139-6.88933,3.12965-10.41,6.42649-.53818,12.48576-1.24761,13.52089-1.527a2.4707,2.4707,0,0,1,1.65224-.07169c.68768.31586.90163,1.17108,1.03243,1.917.81893,4.68929,1.27109,9.56439,3.51843,13.843a8.69312,8.69312,0,0,0,7.07507,4.07212,8.54914,8.54914,0,0,0,6.39233-2.64832c3.11751-3.31044,4.01645-9.41741,4.80346-13.758.45217-2.49286.7632-5.078,1.0594-7.57572a8.26306,8.26306,0,0,1,.23822-1.76636c-.16766.47256,2.96424,4.36731,3.358,4.95651a32.47438,32.47438,0,0,0,4.3877,5.41086c2.437,2.33369,5.18506,4.34428,7.44454,6.84927,6.09388,6.75932,1.0158,13.90378-5.47407,17.49969-2.94222,1.63028-6.06692,3.04677-8.51831,5.34771-2.16509,2.03362-.45936,6.21384-.498,8.89744-.11911,8.2147-2.69951,6.11422-3.02492,9.86082-.18248,2.09193,1.38706,5.61492,1.46751,7.67528.12406,3.206-1.35829,6.28923-3.2047,8.9825-1.70349,2.48437-4.21556,4.66255-7.214,4.94437a15.55989,15.55989,0,0,1-5.17967-.74955c-7.65623-1.917-29.41406-5.92044-33.7339,4.17365-1.71876,4.01846,3.83037,19.48729,3.17819,27.2655-.26519-.01051-.53307-.01618-.80455-.01354-4.616.04511-9.23252.1236-13.8463.26782-13.72045.42885-26.04935-4.09791-37.55977-10.98976a30.35174,30.35174,0,0,1-7.7295-7.06991C237.22324,155.52178,242.67753,141.02482,240.48008,135.39147Zm-13.395,26.60827a3.05893,3.05893,0,0,1,2.90806.32271c6.33884,8.77356,15.67564,12.82439,25.27852,16.66419,11.68076,4.67053,23.83437,4.59643,36.0563,4.2773,5.09516-.133,6.858,1.29705,7.80276,6.581-16.74043,3.35932-32.69878.43851-48.25935-4.84577a52.35116,52.35116,0,0,1-24.09867-17.38631C225.29392,165.76409,224.32217,163.58018,227.085,161.99974Zm-77.904,94.12208a38.48309,38.48309,0,0,1,21.50119,3.20662c11.17916,5.33271,21.983,11.46,32.86733,17.39473A53.09487,53.09487,0,0,1,209.759,281.345q-.27507.61025-.5506,1.22048a27.8787,27.8787,0,0,1-5.18461-1.61477c-8.219-4.40995-16.42669-8.84935-24.50633-13.508-9.00463-5.19219-18.46323-8.33262-28.99246-7.51336a12.89227,12.89227,0,0,1-1.97047-.21956C148.795,258.33281,148.98418,257.25027,149.18105,256.12182Zm35.35468,56.40348c-3.65372,6.82292-7.17036,13.81529-11.67942,20.06138-6.75055,9.352-10.84565,19.27121-11.45289,30.916-.96275,18.46189-5.74644,36.23575-11.3077,53.763a249.80584,249.80584,0,0,0-10.57823,52.99753c-1.05445,11.52115,2.63748,22.03762,6.60853,32.54343a40.41026,40.41026,0,0,1,2.47207,9.68737,57.3319,57.3319,0,0,1-.15821,10.44895c-.53038,7.2384.68,13.84523,1.9817,20.91306a8.2087,8.2087,0,0,1,.03146,3.96576.89.89,0,0,1-.39193.56667.94151.94151,0,0,1-.507.04663,11.68179,11.68179,0,0,1-8.00637-4.61541c-2.37454-3.14566-2.49859-7.00513-2.362-10.799.10113-2.80271-1.33133-12.98023-1.33133-12.98023-2.89817-.40239-2.29633,2.45449-2.70085,4.17471-1.10884,4.71615-2.64916,12.59791-2.96334,13.57421a93.35446,93.35446,0,0,0-3.95487,18.40885c-.48812,4.45759.05009,12.34306-.18743,13.41785s-1.11814,1.85469-2.6577-.08706-1.91653-13.43821-1.26974-19.929a92.90345,92.90345,0,0,1,4.18544-19.12255c.494-1.53864,1.38885-9.388,1.38885-9.388-2.54353-1.12726-8.84642,21.82722-9.03025,31.64961a53.58925,53.58925,0,0,1-.31508,6.84663,9.57357,9.57357,0,0,1-2.43611-.29451c.01438-8.91278,1.66527-19.095,3.39752-27.84054.36048-1.82046,2.33-9.95992.25845-10.48895,0,0-5.061,17.24479-5.71813,24.381-.41082,4.46153-.07641,8.99166-.07641,13.642a3.35308,3.35308,0,0,1-3.75513-3.6897c.44016-6.45311.40459-12.92474.44736-19.389.01831-2.76855.003-5.515-.0944-8.2814-.04271-1.21353.13206-4.24394-.25325-4.24413S109.64317,540.607,108.84,547.74126a3.57885,3.57885,0,0,1-.98254,2.38937c-.36631-3.09812-1.17041-6.47857-1.02074-9.55158.54835-11.26327.80994-22.59193,2.30218-33.7457a446.10272,446.10272,0,0,0,3.69642-50.93447,418.55805,418.55805,0,0,1,8.25268-76.72442c3.86542-18.76764,8.93856-37.2924,13.68989-55.87008,4.3441-16.98617,8.9907-33.89509,13.47234-50.84632.70567-2.66927,1.245-5.38249,1.90395-8.26183,6.00174-.67971,12.09877-.50644,17.4735,2.06159,10.25191,4.89825,20.15549,10.52609,30.61505,16.069-2.43117,5.45716-4.6893,10.58064-6.99327,15.68339C189.05513,302.86978,187.04781,307.83376,184.53573,312.5253Zm72.505,153.358a20.49907,20.49907,0,0,0-3.985-.33081A92.86681,92.86681,0,0,1,225.7254,461.898c-4.91223-1.34829-10.104-1.65595-15.1511-2.537-6.7618-1.1803-13.49662-2.51843-20.26156-3.67788-3.5481-.60813-7.12137-1.07378-10.69239-1.54364l-.013-.04782c-.05484.00894-.10967.01545-.165.02433q-.64723-.0852-1.294-.17063c-3.714-.4929-4.43041-1.48482-3.51439-5.08955a7.66288,7.66288,0,0,1,.5061-1.45054c8.93227-18.4488,11.065-38.48938,13.569-58.42013,2.09811-16.69514,1.13356-33.38118-.48812-50.06745-.66387-6.83315-.7605-13.72225-1.06839-20.588a4.7645,4.7645,0,0,1,.4252-2.0798c4.69109-10.46883,9.415-20.92289,14.20767-31.54876,7.62343,2.91716,10.54676,1.55089,15.76194-4.31646,7.654-8.61034,9.95963-18.98052,15.20087-28.93623a101.552,101.552,0,0,0,4.90517-12.2176c-3.68609,6.02113-7.62342,11.96607-10.52833,18.36806a76.48654,76.48654,0,0,1-13.41751,20.47893c-7.59826-4.30612-14.95425-8.50252-22.33855-12.64869-3.84205-2.15711-7.72725-4.23792-11.60436-6.3316-9.17948-4.95678-18.90057-7.83282-29.65318-7.356,1.08681-6.78511,3.97869-12.49941,7.47779-17.93483,4.16387-6.46829,8.33628-12.9363,12.71185-19.26121a113.16792,113.16792,0,0,1,7.17935-8.81445c11.91808-13.978,25.866-25.71675,40.55008-36.63617.97714-.727,2.00282-1.38937,2.97637-2.06087,9.25185,12.19625,20.90475,20.25341,35.77494,24.01225,14.35015,3.62738,28.596,5.79814,43.84378,2.42612,2.57994,6.82112,6.19142,13.97322,7.98075,21.5554,5.24978,22.24309,10.40227,44.58759,14.66772,67.03789,1.74978,9.209,2.05092,18.78725,2.11969,28.204.19237,26.46927.24361,52.94814-.27193,79.41112-.396,20.33172-4.88641,40.11449-11.37267,59.36923-1.365,4.0519-3.28136,10.04055-5.76332,13.45375-2.91794,4.01291-7.27284,6.09551-12.586,6.49251C282.45788,469.96334,269.85864,468.06884,257.04072,465.8833Z"/></svg>